# xmcd CD database file
#
# Track frame offsets:
#	150
#	16280
#	28530
#	52140
#	66135
#	82660
#	101555
#	123757
#
# Disc length: 1914 seconds
#
# Revision: 0
# Processed by: cddbd v1.5.1PL0 Copyright (c) Steve Scherf et al.
# Submitted via: CDex 1.51
#
DISCID=59077808
DTITLE=Vari - I COLORI DELLA VITA - Arcobaleno
DYEAR=2005
DGENRE=New Age
TTITLE0=Riccardo Cocciante - Un nuovo amico
TTITLE1=I Nomadi - Dio è morto
TTITLE2=Mariella Nava - Terra mia
TTITLE3=Roberto Benigni - Via con me 
TTITLE4=Alex Baroni - E il cielo mi prese con sé
TTITLE5=Antonella Ruggiero - Amore lontanissimo
TTITLE6=Marco Ferradini - Teorema
TTITLE7=Lucio Dalla - L'anno che verrà
EXTD=YEAR: 2005
EXTT0=
EXTT1=
EXTT2=
EXTT3=
EXTT4=
EXTT5=
EXTT6=
EXTT7=
PLAYORDER=
